<svg xmlns="http://www.w3.org/2000/svg" viewBox="0 0 669.84 600.98"><defs><style>.cls-1{isolation:isolate;}.cls-2{fill:#912d4c;fill-rule:evenodd;mix-blend-mode:multiply;}</style></defs><title>Fichier 6</title><g class="cls-1"><g id="Calque_2" data-name="Calque 2"><g id="Calque_1-2" data-name="Calque 1"><g id="black_red_heart"><path class="cls-2" d="M506.29,208.75c-5.91-4.7-20.68-15.13-20.68-27.42A10.59,10.59,0,0,1,496.33,171c5.77,0,10,5.62,10,7.94,0-2.32,4.2-7.94,10-7.94A10.59,10.59,0,0,1,527,181.33C527,193.62,512.2,204.05,506.29,208.75Z"/><path class="cls-2" d="M274.19,37.76c-5.91-4.7-20.68-15.13-20.68-27.42A10.59,10.59,0,0,1,264.23,0c5.77,0,10,5.62,10,7.94,0-2.32,4.2-7.94,10-7.94a10.59,10.59,0,0,1,10.71,10.34C294.87,22.63,280.1,33.06,274.19,37.76Z"/><path class="cls-2" d="M58.43,295.39c-5.91-4.7-20.68-15.13-20.68-27.42a10.59,10.59,0,0,1,10.71-10.34c5.77,0,10,5.62,10,7.94,0-2.32,4.2-7.94,10-7.94A10.59,10.59,0,0,1,79.1,268C79.1,280.25,64.34,290.69,58.43,295.39Z"/><path class="cls-2" d="M497.61,556.25c-5.91-4.7-20.68-15.13-20.68-27.42a10.59,10.59,0,0,1,10.71-10.34c5.77,0,10,5.62,10,7.94,0-2.32,4.2-7.94,10-7.94a10.59,10.59,0,0,1,10.71,10.34C518.29,541.12,503.52,551.56,497.61,556.25Z"/><path class="cls-2" d="M187.18,192.08c-2.48-2-8.68-6.35-8.68-11.51a4.44,4.44,0,0,1,4.5-4.34c2.42,0,4.18,2.36,4.18,3.33,0-1,1.76-3.33,4.18-3.33a4.44,4.44,0,0,1,4.5,4.34C195.86,185.73,189.67,190.11,187.18,192.08Z"/><path class="cls-2" d="M160.92,123.11c-2.48-2-8.68-6.35-8.68-11.51a4.44,4.44,0,0,1,4.5-4.34c2.42,0,4.18,2.36,4.18,3.33,0-1,1.76-3.33,4.18-3.33a4.44,4.44,0,0,1,4.5,4.34C169.6,116.76,163.4,121.14,160.92,123.11Z"/><path class="cls-2" d="M661.17,235.89c-2.48-2-8.68-6.35-8.68-11.51A4.44,4.44,0,0,1,657,220c2.42,0,4.18,2.36,4.18,3.33,0-1,1.76-3.33,4.18-3.33a4.44,4.44,0,0,1,4.5,4.34C669.84,229.54,663.65,233.92,661.17,235.89Z"/><path class="cls-2" d="M396.23,92.53c-2.48-2-8.68-6.35-8.68-11.51a4.44,4.44,0,0,1,4.5-4.34c2.42,0,4.18,2.36,4.18,3.33,0-1,1.76-3.33,4.18-3.33a4.44,4.44,0,0,1,4.5,4.34C404.91,86.18,398.72,90.56,396.23,92.53Z"/><path class="cls-2" d="M8.68,464.45C6.2,462.48,0,458.1,0,452.95a4.44,4.44,0,0,1,4.5-4.34c2.42,0,4.18,2.36,4.18,3.33,0-1,1.76-3.33,4.18-3.33a4.44,4.44,0,0,1,4.5,4.34C17.36,458.1,11.16,462.48,8.68,464.45Z"/><path class="cls-2" d="M87.29,601c-2.48-2-8.68-6.35-8.68-11.51a4.44,4.44,0,0,1,4.5-4.34c2.42,0,4.18,2.36,4.18,3.33,0-1,1.76-3.33,4.18-3.33a4.44,4.44,0,0,1,4.5,4.34C96,594.63,89.77,599,87.29,601Z"/><path class="cls-2" d="M73.17,186c-2.48-2-8.68-6.35-8.68-11.51a4.44,4.44,0,0,1,4.5-4.34c2.42,0,4.18,2.36,4.18,3.33,0-1,1.76-3.33,4.18-3.33a4.44,4.44,0,0,1,4.5,4.34C81.85,179.69,75.65,184.07,73.17,186Z"/><path class="cls-2" d="M497.61,338.57c-2.48-2-8.68-6.35-8.68-11.51a4.44,4.44,0,0,1,4.5-4.34c2.42,0,4.18,2.36,4.18,3.33,0-1,1.76-3.33,4.18-3.33a4.44,4.44,0,0,1,4.5,4.34C506.29,332.22,500.09,336.6,497.61,338.57Z"/><path class="cls-2" d="M547.84,76.69c-2.48-2-8.68-6.35-8.68-11.51a4.44,4.44,0,0,1,4.5-4.34c2.42,0,4.18,2.36,4.18,3.33,0-1,1.76-3.33,4.18-3.33a4.44,4.44,0,0,1,4.5,4.34C556.52,70.33,550.32,74.71,547.84,76.69Z"/><path class="cls-2" d="M550.64,446.59c-2.48-2-8.68-6.35-8.68-11.51a4.44,4.44,0,0,1,4.5-4.34c2.42,0,4.18,2.36,4.18,3.33,0-1,1.76-3.33,4.18-3.33a4.44,4.44,0,0,1,4.5,4.34C559.32,440.24,553.12,444.62,550.64,446.59Z"/></g></g></g></g></svg>