<svg xmlns="http://www.w3.org/2000/svg" viewBox="0 0 480.4 463.12"><defs><style>.cls-1{fill:#f2ba9c;}.cls-2{fill:#ffceaf;}.cls-3{fill:#6d5041;}.cls-4,.cls-6{fill:#d8214d;}.cls-10,.cls-18,.cls-4,.cls-9{opacity:0.3;}.cls-21,.cls-5{fill:#b02440;}.cls-6{opacity:0.7;}.cls-7{fill:#fff;}.cls-8{fill:#533156;}.cls-9{fill:#77467c;}.cls-10{fill:#a069a8;}.cls-11{fill:#98a36c;}.cls-12,.cls-20{fill:#bcc989;}.cls-12,.cls-16,.cls-19{opacity:0.5;}.cls-13{fill:#342735;}.cls-14{fill:#744539;}.cls-15,.cls-16{fill:#8c5d54;}.cls-17{fill:#3f3634;}.cls-18{fill:#564d4c;}.cls-21{fill-rule:evenodd;}</style></defs><title>Fichier 1</title><g id="Calque_2" data-name="Calque 2"><g id="_1200X800" data-name="1200X800"><path class="cls-1" d="M327.18,307.19s-40.76,19.17-48.52,18.37-2.5,8,12,8.5,51.63-15.11,51.63-15.11Z"/><path class="cls-1" d="M270.41,220.56s-2.38-4.4-5.15-2.5-.38,7.54,0,8.39-2.15,8-1.32,10.5,6.26,2.35,6.26,2.35Z"/><path class="cls-2" d="M315.92,315.53s.33,7.83,1.17,9.5-32.33,12-38.25,3.83c-2.56-3.54,9.58-1,18.25-4.74S315.92,315.53,315.92,315.53Z"/><path class="cls-1" d="M393.52,363.5s15.67,77.5-12,89.33c0,0,1.14-51.33-12.43-76C369.09,376.84,386.23,358.17,393.52,363.5Z"/><path class="cls-2" d="M392.19,380.37s7.82,54.22-8.67,49.84c0,0,.81-22.33-9-40.19C374.5,390,386.91,376.51,392.19,380.37Z"/><path class="cls-1" d="M267.71,229.07c-2.55,41.53,41.46,56.15,82.56,58.67s70-22.4,72.53-63.93S394.1,146.57,353,144.05,270.26,187.54,267.71,229.07Z"/><path class="cls-2" d="M270.59,227.31c-1.88,30.56,30.51,41.32,60.76,43.18s51.5-16.49,53.38-47S357.93,164,327.68,162.17,272.47,196.75,270.59,227.31Z"/><path class="cls-3" d="M280.92,207.09c.88-.85,4.08-4.13,9-1a1.53,1.53,0,0,1-.84,2.8c-2.56.27-3.45-2.59-7.58-.09C278.92,210.43,280,207.94,280.92,207.09Z"/><ellipse class="cls-4" cx="304.63" cy="222.94" rx="4.93" ry="14.79" transform="matrix(0.35, -0.94, 0.94, 0.35, -9.82, 431.81)"/><path class="cls-5" d="M340.68,289.34c4.63,1.29,27.94,24.87,41.75,25.73s36.73,3,36.73,3-1.33,56.3-49.62,63c0,0-19.48-25.16-35.38-44.45-3.49-4.23-9.06-3.88-11.68-7.75-5.44-8-3-19.9-2.23-22.32C323.57,295.93,330.06,286.39,340.68,289.34Z"/><path class="cls-6" d="M340.71,313.69c2,3.55,13.18,16,54.46,35.81-2.06,12-5.15,21.26-25.51,24.08,0,0-16.43-21.22-29.84-37.48-1.47-1.78,4.15-4.19,2.33-5s-13-.58-14.63-1.71c-8.72-6.15-6.6-18.43-6.26-20.54,1.48-9.32,1.64-8.3,4.58-8.83,1.84-.33,5.7,3.62,8.11,4C336.58,304.48,338.73,310.12,340.71,313.69Z"/><path class="cls-1" d="M308.09,280s12.57,14.36,13.27,23.53c0,0,1,5.17,5.08,0,1.9-2.41,6.8-10.17,6.8-10.17s-6.45-4.58,0-7.38Z"/><path class="cls-5" d="M396.54,435.84H379s-2.39,17.56-5.86,21c-.84.84,14.81,3.5,18.5-4S396.54,435.84,396.54,435.84Z"/><path class="cls-6" d="M392.38,442.59a8.55,8.55,0,0,1-6.13-1.81A11,11,0,0,1,380,442.4s-1.34,9.37-3.46,12c0,0,10.53,1.69,13.25-3.83S392.38,442.59,392.38,442.59Z"/><path class="cls-7" d="M378.59,432.17A4,4,0,0,1,381,433a4,4,0,0,1,5.39.4,4,4,0,0,1,6,.23,4.08,4.08,0,1,1,0,5.21,4,4,0,0,1-6,.23,4,4,0,0,1-5.39.4,4.08,4.08,0,1,1-2.46-7.32Z"/><path class="cls-5" d="M338.07,282.66c-4,0-25.36,8.11-25.36,8.11s-8.43,16.89-2.51,18.46,32-10.8,32-10.8l1.66-7.66S342.1,282.66,338.07,282.66Z"/><path class="cls-1" d="M334.5,294.83c-5.47,6.51,26,44.38,45.36,50.17,9.32,2.78,12.5,0,5.67-3.33-10.09-4.92-31.87-38.95-35.89-43.91S340,288.33,334.5,294.83Z"/><path class="cls-2" d="M336.88,298.73c-4.59,5.45,23.18,36.73,38,42,7.67,2.74,6.2-.67,2.18-3.17-8-5-24.14-32.25-27.5-36.4S341.47,293.28,336.88,298.73Z"/><path class="cls-8" d="M477.33,257.7a20.06,20.06,0,0,0-18.58-20h0C432.08,222.94,434.08,158,398.26,153h0c-4.48-15.64-58.82-35.3-102.12,5.94-9.2,15.33,5,24.95,13.29,31.9,16,13.33,30.35,35.93,30.63,52,0,0,10.25,44.94,17.06,50.09h0a12.37,12.37,0,0,0,18.7,13.45A14.57,14.57,0,0,0,400.33,310a14.55,14.55,0,0,0,23-5.83,14.57,14.57,0,0,0,26.43-5.55,18,18,0,0,0,21-26.09A20,20,0,0,0,477.33,257.7Z"/><path class="cls-2" d="M337,239s9.44-32,25.28-12.28C377.59,245.84,343.94,254.17,337,248S337,239,337,239Z"/><path class="cls-8" d="M329.25,207.07S335,232.2,326,248.71c0,0,22.78,0,21.5-30.27C346.41,193.31,329.25,207.07,329.25,207.07Z"/><path class="cls-9" d="M468.91,257.7a14,14,0,0,0-14-14l-.58,0c-25.21-9.61-26.91-50.21-35.2-68.05-8.6-18.5-30-19.57-30-19.57-44.39-39.83-84.56,8.07-84.56,8.07,4.38,42,49.79,39.11,49.79,39.11,46.78,34.08,13.33,54.39,1.33,54.39.9,13.42,3.32,22.14,6.28,27.93a11.62,11.62,0,0,0,14.17,14.61,11.63,11.63,0,0,0,16.57,1.5,11.64,11.64,0,0,0,20.82-1.14c.31,0,.63,0,.95,0a11.6,11.6,0,0,0,8.54-3.74A14,14,0,0,0,448.42,291a14,14,0,0,0,14.48-21.8A14,14,0,0,0,468.91,257.7Z"/><path class="cls-10" d="M380.36,159.7s-27.52-13-38.06-5.67C342.3,154,362.64,131,380.36,159.7Z"/><path class="cls-10" d="M389.19,166s22.89,6.33,23.23,21.67C412.42,187.7,426.63,162.37,389.19,166Z"/><path class="cls-10" d="M385.22,157.37s-5.47-14.79-14.14-17.06C371.08,140.3,392.36,144.37,385.22,157.37Z"/><path class="cls-11" d="M192,281.78s-20,84.64-100.49,85.14c0,0-12.17-16.66-7.52-27.71s62.23-4.92,88.27-66.83C172.29,272.38,196.6,265,192,281.78Z"/><path class="cls-12" d="M186.11,281.7c2.55,13.09-26.6,70.3-69.65,74.21,0,0-17.34-5.85-13.64-14.64s40.92-8,67.59-60.6C170.4,280.67,184.82,275.11,186.11,281.7Z"/><path class="cls-11" d="M84.48,370.49a11.13,11.13,0,0,0,5.34-2c2.78-1.94,3.09-3.76,1.95-4.43S81.22,368.22,84.48,370.49Z"/><path class="cls-11" d="M79.78,361.55a11.12,11.12,0,0,0,5.56-1.31c3-1.55,3.56-3.32,2.52-4.13S76.86,358.86,79.78,361.55Z"/><path class="cls-11" d="M81.3,364.52a11.13,11.13,0,0,0,5.46-1.67c2.9-1.74,3.34-3.54,2.25-4.28S78.21,362,81.3,364.52Z"/><path class="cls-11" d="M82.68,367.47a11.12,11.12,0,0,0,5.46-1.67c2.9-1.74,2.86-3.12,2.25-4.28C89.33,359.49,79.59,365,82.68,367.47Z"/><path class="cls-11" d="M79.13,358.65a11.12,11.12,0,0,0,5.52-1.47c3-1.63,3.47-3.42,2.41-4.2S76.14,356,79.13,358.65Z"/><path class="cls-11" d="M78.54,355.25a11.12,11.12,0,0,0,5.52-1.47c3-1.63,3.47-3.41,2.41-4.2S75.54,352.64,78.54,355.25Z"/><path class="cls-11" d="M76.44,351.56a11.12,11.12,0,0,0,5.68-.62c3.18-1.17,3.94-2.85,3-3.79S73.87,348.54,76.44,351.56Z"/><path class="cls-11" d="M75.94,347.55a11.12,11.12,0,0,0,5.71.21c3.31-.69,4.32-2.25,3.53-3.31S73.84,344.18,75.94,347.55Z"/><path class="cls-11" d="M75,342.82a11.13,11.13,0,0,0,5.45,1.72c3.38.22,4.76-1,4.28-2.25S73.92,339,75,342.82Z"/><path class="cls-11" d="M77.14,337a11.13,11.13,0,0,0,4,4.06c2.89,1.76,4.69,1.31,4.84,0S77.92,333.14,77.14,337Z"/><path class="cls-13" d="M167.44,350.92c-6.33,18.77,36.25,112.2,36.25,112.2s18.08-4.36,18.42-8.1-11.16-1.87-11.16-1.87l-3-69.57,13-3.87,36.92,72.81s11.87-8.34,12.24-12.89-9.58,0-9.58,0L241.81,372l-3.26-29.88S173.77,332.15,167.44,350.92Z"/><path class="cls-14" d="M212.43,260.69s48.68,58.18,58.08,63.6L263.78,335c-23.74-15.6-50.17-42.13-50.17-42.13Z"/><path class="cls-14" d="M133.75,236.19s-20.3,38.16-11.84,47,50.3,16,50.3,16l6.13-25.76s-36.94.8-39.5-4S154.42,229.83,133.75,236.19Z"/><path class="cls-15" d="M240.17,336.47l1.45,3.95a111.76,111.76,0,0,1-30.26,11.71c-17.15,3.79-38.95,3-47.83-.72l2-6.5Z"/><path class="cls-14" d="M204.82,254.35c9.12,8.27,45,55.45,35.35,82.12-1.42,3.91-70.27,26.31-74.6,8.43,2.23-18.28,6.68-62.93,8.33-79.47C174.5,259.45,195.7,246.08,204.82,254.35Z"/><path class="cls-16" d="M218.34,271.73s22.93,38.76,18.58,61.05c0,0-39.11,16.55-58.58,10.23l10.89-59.24S211.24,283.77,218.34,271.73Z"/><path class="cls-15" d="M204.32,273s17.53,60.26,10.62,73.18c0,0-7.67-64-14.38-71.65Z"/><path class="cls-14" d="M202.2,332.44c-2.29.47-25.68-.94-25.68-.94l-1.58,5.75,26.75.17Z"/><path class="cls-14" d="M238.53,318.76c-1.64.58-18.12,10-18.12,10L222,333l16.58-6.07Z"/><path class="cls-1" d="M117.25,230.14s-23,18.62-24.39-14.79S117.59,211.48,117.25,230.14Z"/><path class="cls-1" d="M260.43,199.4c4.29,40.77-39,59.74-79.38,64s-69.23-21.75-73.52-62.52,24.95-77.26,65.3-81.51S256.14,158.63,260.43,199.4Z"/><path class="cls-2" d="M254.4,198.11c3.78,35.93-30.12,49.88-62.27,53.26S136.25,234,132.47,198.06s19.21-67.8,51.36-71.18S250.62,162.18,254.4,198.11Z"/><ellipse class="cls-3" cx="167.17" cy="210.27" rx="3.8" ry="6.22" transform="translate(-29.85 27.67) rotate(-8.69)"/><ellipse class="cls-7" cx="165.41" cy="209.23" rx="1.47" ry="2.13" transform="translate(-44.13 44.21) rotate(-13.45)"/><ellipse class="cls-3" cx="231.91" cy="194.79" rx="3.8" ry="6.22" transform="translate(-26.77 37.27) rotate(-8.69)"/><ellipse class="cls-7" cx="230.15" cy="193.75" rx="1.47" ry="2.13" transform="translate(-38.76 58.85) rotate(-13.45)"/><ellipse class="cls-4" cx="147.9" cy="226" rx="17.44" ry="5.81" transform="translate(-47.76 39.81) rotate(-13.22)"/><ellipse class="cls-4" cx="243.96" cy="203.03" rx="17.44" ry="5.81" transform="translate(-39.96 61.16) rotate(-13.22)"/><path class="cls-7" d="M199.31,238.19c8.73.93,14.39-6.9,14.46-7a1.48,1.48,0,0,0-2.41-1.71h0c-.28.39-6.92,9.47-16.64,4.14a1.48,1.48,0,0,0-1.42,2.59A16,16,0,0,0,199.31,238.19Z"/><path class="cls-3" d="M149.54,212.42a1.5,1.5,0,0,1-.32-3c9-2,9.47-14.24,9.47-14.37a1.5,1.5,0,1,1,3,.09,25.77,25.77,0,0,1-1.58,7.54c-2,5.29-5.54,8.64-10.25,9.67A1.52,1.52,0,0,1,149.54,212.42Z"/><path class="cls-17" d="M244.79,126.59a14.75,14.75,0,0,0-7.32-26.36s0-.07,0-.1a14.76,14.76,0,0,0-20.72-13.52,14.74,14.74,0,0,0-23.15-2.35,14.75,14.75,0,0,0-27.05,1.19,14.75,14.75,0,0,0-23.91.73A14.74,14.74,0,0,0,123,100.13h0a14.76,14.76,0,0,0-25.86,9.74,14.76,14.76,0,0,0-14,19.39A14.76,14.76,0,0,0,66.8,144a14.75,14.75,0,0,0,7.34,12.75,14.76,14.76,0,0,0,1,25.1c1.14,17.61,14.23,35.88,18.82,42.29-6.51-17,10.84-22.9,13.33-13,4.14,16.48,20.71,13.33,20.71,13.33-8.29-7.74-4.54-22.65-.46-32.93a14.65,14.65,0,0,0,16.75-14.19,14.72,14.72,0,0,0,18.6-8.6,14.7,14.7,0,0,0,16.93-10.58,14.75,14.75,0,0,0,23.53-6.53,14.74,14.74,0,0,0,23.2-2.28,14.76,14.76,0,1,0,18.26-22.72Z"/><path class="cls-18" d="M235.8,116.43a12.75,12.75,0,0,0-16-12.38,12.78,12.78,0,0,0-23.09-3.75c0-.07,0-.15,0-.22a12.8,12.8,0,0,0-24.56-5,12.77,12.77,0,0,0-20.67-.34,12.75,12.75,0,0,0-15.14,11.65,12.8,12.8,0,0,0-9.83,6.61,12.79,12.79,0,1,0-22.32,12.5,12.72,12.72,0,0,0-1.73,6.4,12.78,12.78,0,0,0-11,19.26,12.79,12.79,0,0,0,3.42,25,12.79,12.79,0,1,0,25,4.67,12.76,12.76,0,0,0,15.09-11.28h.3a12.77,12.77,0,0,0,10-4.83A12.79,12.79,0,0,0,164.76,158a12.68,12.68,0,0,0,13.64-7,12.76,12.76,0,0,0,17.46-7,12.75,12.75,0,0,0,16.38-4.56,12.79,12.79,0,1,0,20.68-15A12.74,12.74,0,0,0,235.8,116.43Z"/><path class="cls-11" d="M167.29,260.2s-3.45,10-1.21,14.2,23.66,2,34.94-.56,19.66-5.36,18.18-10.14-1.34-15.32-4.42-16.34S172,254.62,167.29,260.2Z"/><g class="cls-19"><path class="cls-20" d="M209.11,250.8a36.09,36.09,0,0,1,3.32,9.89c1.17,6.05.27,8.41-1.14,7.44S204.84,248.44,209.11,250.8Z"/><path class="cls-20" d="M200.4,253.15a36.09,36.09,0,0,1,3.32,9.89c1.17,6.05.27,8.41-1.14,7.44S196.12,250.79,200.4,253.15Z"/><path class="cls-20" d="M191.11,255.71a36.09,36.09,0,0,1,3,10c.95,6.09,0,8.41-1.41,7.4S186.92,253.2,191.11,255.71Z"/><path class="cls-20" d="M182.22,259.49a28.72,28.72,0,0,1,1.62,8.14c.31,4.9-.64,6.67-1.66,5.76S179.08,257.19,182.22,259.49Z"/><path class="cls-20" d="M172.69,261.06a28.72,28.72,0,0,1,1,8.24c0,4.91-1.11,6.6-2.06,5.63S169.72,258.55,172.69,261.06Z"/></g><path class="cls-1" d="M270.51,324.28s16.44-2.54,14.23,3-21,7.77-21,7.77Z"/><path class="cls-21" d="M316.79,103c-8.05-6.4-28.18-20.62-28.18-37.36,0-7.86,6.74-14.09,14.6-14.09s13.58,7.66,13.58,10.82c0-3.16,5.72-10.82,13.58-10.82S345,57.78,345,65.64C345,82.38,324.84,96.6,316.79,103Z"/><path class="cls-21" d="M194.45,44c-6.88-5.47-24.07-17.62-24.07-31.92A12.33,12.33,0,0,1,182.85,0c6.72,0,11.6,6.54,11.6,9.24,0-2.7,4.88-9.24,11.6-9.24a12.33,12.33,0,0,1,12.47,12C218.52,26.34,201.33,38.49,194.45,44Z"/><path class="cls-21" d="M265.25,29.19C260.88,25.72,250,18,250,8.92a7.82,7.82,0,0,1,7.92-7.64c4.26,0,7.36,4.15,7.36,5.87,0-1.72,3.1-5.87,7.36-5.87a7.82,7.82,0,0,1,7.92,7.64C280.53,18,269.62,25.72,265.25,29.19Z"/><path class="cls-21" d="M15.28,329.54C10.91,326.06,0,318.35,0,309.27a7.82,7.82,0,0,1,7.92-7.64c4.26,0,7.36,4.15,7.36,5.87,0-1.72,3.1-5.87,7.36-5.87a7.82,7.82,0,0,1,7.92,7.64C30.56,318.35,19.65,326.06,15.28,329.54Z"/><path class="cls-21" d="M387.1,118c-4.37-3.47-15.28-11.18-15.28-20.27a7.82,7.82,0,0,1,7.92-7.64c4.26,0,7.36,4.15,7.36,5.87,0-1.72,3.1-5.87,7.36-5.87a7.82,7.82,0,0,1,7.92,7.64C402.38,106.85,391.46,114.56,387.1,118Z"/><path class="cls-21" d="M409.06,49.88c-4.37-3.47-15.28-11.18-15.28-20.27A7.82,7.82,0,0,1,401.7,22c4.26,0,7.36,4.15,7.36,5.87,0-1.72,3.1-5.87,7.36-5.87a7.83,7.83,0,0,1,7.92,7.64C424.34,38.7,413.43,46.41,409.06,49.88Z"/><path class="cls-21" d="M89.56,285.94c-4.37-3.47-15.28-11.18-15.28-20.27A7.82,7.82,0,0,1,82.2,258c4.26,0,7.36,4.15,7.36,5.87,0-1.72,3.1-5.87,7.36-5.87a7.82,7.82,0,0,1,7.92,7.64C104.84,274.76,93.93,282.47,89.56,285.94Z"/><path class="cls-21" d="M465.12,208.73c-4.37-3.47-15.28-11.18-15.28-20.27a7.82,7.82,0,0,1,7.92-7.64c4.26,0,7.36,4.15,7.36,5.87,0-1.72,3.1-5.87,7.36-5.87a7.82,7.82,0,0,1,7.92,7.64C480.4,197.55,469.49,205.26,465.12,208.73Z"/><path class="cls-21" d="M300.37,387.25c-4.37-3.47-15.28-11.18-15.28-20.27a7.82,7.82,0,0,1,7.92-7.64c4.26,0,7.36,4.15,7.36,5.87,0-1.72,3.1-5.87,7.36-5.87a7.82,7.82,0,0,1,7.92,7.64C315.65,376.06,304.74,383.78,300.37,387.25Z"/><path class="cls-21" d="M105.26,78.41C100.89,74.94,90,67.23,90,58.15A7.82,7.82,0,0,1,97.9,50.5c4.26,0,7.36,4.15,7.36,5.87,0-1.72,3.1-5.87,7.36-5.87a7.83,7.83,0,0,1,7.92,7.64C120.55,67.23,109.63,74.94,105.26,78.41Z"/></g></g></svg>