<svg xmlns="http://www.w3.org/2000/svg" viewBox="0 0 273.3 532.06"><defs><style>.cls-1{fill:#744539;}.cls-2,.cls-5{fill:#aa264c;}.cls-2,.cls-3{fill-rule:evenodd;}.cls-13,.cls-3,.cls-6{fill:#d8214d;}.cls-3,.cls-6{opacity:0.7;}.cls-4{fill:#fff;}.cls-7{fill:#98a36c;}.cls-17,.cls-8{fill:#bcc989;}.cls-16,.cls-18,.cls-23,.cls-8{opacity:0.5;}.cls-18,.cls-9{fill:#8c5d54;}.cls-10{fill:#f2ba9c;}.cls-11{fill:#ffceaf;}.cls-12{fill:#6d5041;}.cls-13,.cls-15,.cls-21{opacity:0.3;}.cls-14{fill:#3f3634;}.cls-15{fill:#564d4c;}.cls-19{fill:#533156;}.cls-20{fill:#b02440;}.cls-21{fill:#77467c;}.cls-22{fill:#bc7c73;}.cls-23,.cls-24{fill:#e29d96;}</style></defs><title>Fichier 8</title><g id="Calque_2" data-name="Calque 2"><g id="Calque_1-2" data-name="Calque 1"><g id="couple"><rect class="cls-1" x="9.73" y="340.33" width="219.31" height="1.83" transform="translate(-222.2 459.63) rotate(-89.83)"/><rect class="cls-1" x="-26.97" y="276.62" width="351.43" height="1.83" transform="translate(-137.15 409.49) rotate(-86.59)"/><rect class="cls-1" x="83.55" y="348.67" width="214.92" height="1.83" transform="translate(-191.24 461.74) rotate(-77.7)"/><rect class="cls-1" x="81.35" y="228.57" width="1.83" height="226.2" transform="translate(-20.31 5.54) rotate(-3.43)"/><path class="cls-2" d="M159.14,125.38c-26.8,0-68.66-50.25-68.66-91.05C90.48,15.18,106.9,0,126.06,0s33.09,18.66,33.09,26.37C159.14,18.66,173.07,0,192.23,0s35.57,15.18,35.57,34.33C227.81,75.13,189.09,125.38,159.14,125.38Z"/><path class="cls-3" d="M155.89,113.34c-21.17,0-54.25-39.71-54.25-71.94,0-15.14,13-27.13,28.11-27.13S155.89,29,155.89,35.1c0-6.09,11-20.84,26.14-20.84s28.11,12,28.11,27.13C210.14,73.63,179.55,113.34,155.89,113.34Z"/><ellipse class="cls-4" cx="122.26" cy="32.95" rx="10.64" ry="7.55" transform="translate(57.48 141.74) rotate(-74.31)"/><ellipse class="cls-4" cx="116.78" cy="57.03" rx="5.6" ry="6.77"/><path class="cls-2" d="M80.08,230.54c-20.82,7.4-67.24-20.09-78.51-51.79-5.29-14.89,3.28-31.21,18.16-36.51s30.87,5.36,33,11.35c-2.13-6,3.54-24.34,18.43-29.63s31.84,2,37.13,16.85C119.56,172.52,103.35,222.26,80.08,230.54Z"/><path class="cls-3" d="M74.22,222.07c-16.45,5.85-53.13-15.87-62-40.92C8,169.39,14.78,156.49,26.54,152.31s24.39,4.24,26.07,9c-1.68-4.74,2.8-19.23,14.56-23.41s25.16,1.55,29.34,13.32C105.42,176.23,92.61,215.54,74.22,222.07Z"/><ellipse class="cls-4" cx="25.88" cy="168.89" rx="6.23" ry="8.78" transform="translate(-11.37 2.14) rotate(-3.88)"/><ellipse class="cls-4" cx="28.28" cy="189.12" rx="4.62" ry="5.58" transform="translate(-61.7 20.39) rotate(-19.57)"/><path class="cls-2" d="M213.26,251.35c-22.08-1-54.67-44-53.12-77.62.73-15.78,14.83-27.66,30.61-26.94s26.55,16.62,26.26,23c.29-6.35,12.48-21.2,28.26-20.47s28.73,13.85,28,29.63C271.73,212.54,237.93,252.48,213.26,251.35Z"/><path class="cls-3" d="M211,241.3c-17.44-.8-43.19-34.77-42-61.33.57-12.47,11.72-21.86,24.19-21.28s21,13.14,20.75,18.16c.23-5,9.86-16.75,22.33-16.18s22.7,10.94,22.13,23.41C257.23,210.64,230.52,242.19,211,241.3Z"/><ellipse class="cls-4" cx="186.36" cy="173.79" rx="8.78" ry="6.23" transform="translate(-37.19 296.09) rotate(-71.68)"/><ellipse class="cls-4" cx="180.94" cy="193.42" rx="5.58" ry="4.62" transform="translate(-20.59 365.29) rotate(-87.37)"/><path class="cls-2" d="M120.39,246.27c-21.94-2.68-51.2-48-47.12-81.4,1.91-15.68,16.87-26.47,32.55-24.55S131,158.89,130.28,165.2c.77-6.31,14-20.2,29.72-18.29s27.61,16,25.7,31.66C181.62,212,144.91,249.26,120.39,246.27Z"/><path class="cls-3" d="M118.93,236.08C101.6,234,78.48,198.15,81.7,171.76c1.51-12.39,13.33-20.91,25.72-19.4S127.35,167,126.74,172c.61-5,11.09-16,23.48-14.45s21.82,12.62,20.3,25C167.31,209,138.3,238.44,118.93,236.08Z"/><ellipse class="cls-4" cx="99.42" cy="166.9" rx="8.78" ry="6.23" transform="translate(-92.89 194.42) rotate(-67.36)"/><ellipse class="cls-4" cx="92.53" cy="186.07" rx="5.58" ry="4.62" transform="translate(-103.38 255.4) rotate(-83.05)"/><path class="cls-5" d="M119.12,242.18c-1.65,1.07,4.51,16.25,8.22,9.5C133.75,247.53,120.77,241.11,119.12,242.18Z"/><ellipse class="cls-5" cx="128.5" cy="251.37" rx="5.81" ry="3.58" transform="translate(-143.38 175.32) rotate(-47.3)"/><ellipse class="cls-6" cx="129.06" cy="251.5" rx="3.37" ry="2.08" transform="translate(-143.29 175.78) rotate(-47.3)"/><path class="cls-5" d="M157.13,124c-1.65,1.07,4.51,16.25,8.22,9.5C171.76,129.35,158.78,122.93,157.13,124Z"/><ellipse class="cls-5" cx="166.51" cy="133.19" rx="5.81" ry="3.58" transform="translate(-44.29 165.22) rotate(-47.3)"/><ellipse class="cls-6" cx="167.07" cy="133.32" rx="3.37" ry="2.08" transform="translate(-44.21 165.69) rotate(-47.3)"/><path class="cls-5" d="M74.5,229.3c-1.65,1.07,4.51,16.25,8.22,9.5C89.13,234.65,76.15,228.23,74.5,229.3Z"/><ellipse class="cls-5" cx="83.88" cy="238.48" rx="5.81" ry="3.58" transform="translate(-148.27 138.39) rotate(-47.3)"/><ellipse class="cls-6" cx="84.44" cy="238.62" rx="3.37" ry="2.08" transform="translate(-148.18 138.85) rotate(-47.3)"/><path class="cls-5" d="M213.64,250.67c-.6-1.87-16.87.09-11.33,5.44C204.64,263.39,214.24,252.54,213.64,250.67Z"/><ellipse class="cls-5" cx="202.32" cy="257.31" rx="3.58" ry="5.81" transform="translate(-105.77 146.77) rotate(-32.09)"/><ellipse class="cls-6" cx="202.04" cy="257.82" rx="2.08" ry="3.37" transform="translate(-106.09 146.7) rotate(-32.09)"/><path class="cls-1" d="M47.82,360s-9.12,23.85-4.27,28.9,24.81,10.55,24.81,10.55l9.4-7.81s-24.09-6.51-25.56-9.24S51.43,358.12,47.82,360Z"/><path class="cls-1" d="M104.27,390.59l23.6,30.62-3.58,4-24-25.33S101.14,386.54,104.27,390.59Z"/><path class="cls-7" d="M101.27,374.18s-48.56,11.42-48.89,57.6c0,0,9.55,7,15.89,4.33s-5.71-48.16,31.83-49.85C100.11,386.26,110.91,371.57,101.27,374.18Z"/><path class="cls-8" d="M101.31,377.58C93.81,376.11,61,392.8,58.71,417.5c0,0,3.34,10,8.39,7.83s-3.11-36,31.43-40.41C98.53,384.92,105.09,378.32,101.31,377.58Z"/><path class="cls-7" d="M50.33,435.83a6.38,6.38,0,0,1,1.18-3.06c1.11-1.59,2.16-1.77,2.54-1.11S51.63,437.7,50.33,435.83Z"/><path class="cls-7" d="M55.45,438.53a6.38,6.38,0,0,1,.76-3.19c.89-1.73,1.9-2,2.37-1.44S57,440.21,55.45,438.53Z"/><path class="cls-7" d="M53.75,437.65a6.38,6.38,0,0,1,1-3.13c1-1.66,2-1.91,2.46-1.29S55.18,439.43,53.75,437.65Z"/><path class="cls-7" d="M52.06,436.86a6.38,6.38,0,0,1,1-3.13c1-1.66,1.79-1.64,2.46-1.29C56.64,433.05,53.49,438.64,52.06,436.86Z"/><path class="cls-7" d="M57.12,438.9a6.38,6.38,0,0,1,.85-3.17c.94-1.7,2-2,2.41-1.38S58.61,440.62,57.12,438.9Z"/><path class="cls-7" d="M59.07,439.25a6.38,6.38,0,0,1,.85-3.17c.94-1.7,2-2,2.41-1.38S60.56,441,59.07,439.25Z"/><path class="cls-7" d="M61.18,440.45a6.38,6.38,0,0,1,.36-3.26c.67-1.82,1.64-2.26,2.17-1.72S62.92,441.93,61.18,440.45Z"/><path class="cls-7" d="M63.48,440.74a6.38,6.38,0,0,1-.12-3.28c.4-1.9,1.29-2.47,1.9-2S65.42,441.95,63.48,440.74Z"/><path class="cls-7" d="M66.2,441.26a6.38,6.38,0,0,1-1-3.13c-.12-1.94.59-2.73,1.29-2.46S68.38,441.91,66.2,441.26Z"/><path class="cls-7" d="M69.51,440.05a6.38,6.38,0,0,1-2.33-2.31c-1-1.66-.75-2.69,0-2.77S71.75,439.61,69.51,440.05Z"/><path class="cls-9" d="M66.72,432.12,66,434.59a68.62,68.62,0,0,0,19,6.09c10.65,1.71,24,.46,29.29-2.16l-1.49-3.91Z"/><path class="cls-1" d="M85.43,380.51c-5.29,5.4-25.59,35.61-18.71,51.61,1,2.35,44,13.59,46,2.48-2-11.13-11.38-39.63-11-49.83C102.27,372,90.72,375.12,85.43,380.51Z"/><path class="cls-10" d="M138.78,360.41s16,11,15.19-10.92S137.59,348.23,138.78,360.41Z"/><path class="cls-10" d="M43.57,347.65c-.72,26.88,28.58,37.07,55.19,37.78s44.16-17.77,44.87-44.65-20.27-49.25-46.88-50S44.29,320.77,43.57,347.65Z"/><path class="cls-11" d="M47.45,346.5c-.63,23.69,22.25,31.08,43.45,31.64s35.65-14.23,36.28-37.92-16-43.35-37.23-43.91S48.08,322.81,47.45,346.5Z"/><ellipse class="cls-12" cx="111.38" cy="350.97" rx="4.08" ry="2.49" transform="translate(-246.82 436.28) rotate(-85.79)"/><ellipse class="cls-4" cx="112.47" cy="350.2" rx="1.4" ry="0.96" transform="translate(-250.98 406.7) rotate(-81.03)"/><ellipse class="cls-12" cx="66.89" cy="345.02" rx="4.08" ry="2.49" transform="translate(-282.11 386.4) rotate(-85.79)"/><ellipse class="cls-4" cx="67.98" cy="344.25" rx="1.4" ry="0.96" transform="translate(-282.65 357.73) rotate(-81.03)"/><ellipse class="cls-13" cx="118.52" cy="359.28" rx="3.81" ry="11.44" transform="translate(-254.59 421.84) rotate(-81.26)"/><ellipse class="cls-13" cx="54.53" cy="349.18" rx="3.81" ry="11.44" transform="translate(-298.88 350.03) rotate(-81.26)"/><path class="cls-4" d="M85.53,369.88c-5.66,1.06-9.76-3.77-9.81-3.83a1,1,0,0,1,1.49-1.24h0c.2.24,5,5.84,11.09,1.85a1,1,0,1,1,1.06,1.62A10.47,10.47,0,0,1,85.53,369.88Z"/><path class="cls-14" d="M48.07,310.63a9.11,9.11,0,0,1,.69-16.88l0-.06a9.12,9.12,0,0,1,10.56-11A9.1,9.1,0,0,1,72.9,278a9.11,9.11,0,0,1,16.44-3.09,9.11,9.11,0,0,1,14.48-2.93,9.11,9.11,0,0,1,13.76,5.62h0a9.12,9.12,0,0,1,16.92,2.22,9.11,9.11,0,0,1,11.17,9.69,9.12,9.12,0,0,1,9.27,15.24,9.12,9.12,0,0,1,3,15.23c1.79,10.75-2.89,25-4.75,29.55,1.52-11.16-10.35-13.71-10.46-7.4-.17,10.49-10.58,10.93-10.58,10.93,3.9-5.82-.46-14.26-4.36-19.87A9.05,9.05,0,0,1,115.68,327a9.09,9.09,0,0,1-12.4-2.56,9.08,9.08,0,0,1-11.67-4,9.11,9.11,0,0,1-15.07-.61,9.1,9.1,0,0,1-14.28,1.9,9.12,9.12,0,1,1-14.18-11.09Z"/><path class="cls-15" d="M52,303.25a7.88,7.88,0,0,1,7.88-9.7A7.9,7.9,0,0,1,73.29,288l0-.13a7.91,7.91,0,0,1,14.06-6.49,7.89,7.89,0,0,1,12.38-3.11,7.88,7.88,0,0,1,10.75,4.88,7.91,7.91,0,0,1,6.84,2.59,7.9,7.9,0,1,1,15.19,4.38,7.86,7.86,0,0,1,1.94,3.61,7.89,7.89,0,0,1,9.35,10,7.9,7.9,0,0,1,1.46,15.53,7.9,7.9,0,1,1-14.38,6.33A7.88,7.88,0,0,1,120.18,321L120,321a7.89,7.89,0,0,1-6.7-1.5,7.9,7.9,0,0,1-12.68-1.31A7.83,7.83,0,0,1,91.44,316,7.88,7.88,0,0,1,80,314.24a7.88,7.88,0,0,1-10.5-.43,7.9,7.9,0,1,1-14.55-6.1A7.87,7.87,0,0,1,52,303.25Z"/><path class="cls-7" d="M105.56,381.87s2.76,5.4,1.83,8-13.28,3-19.89,2.5S75.9,390.88,76.36,388s-.48-8.81,1.19-9.64S102.41,379.09,105.56,381.87Z"/><g class="cls-16"><path class="cls-17" d="M81,379.9A20.7,20.7,0,0,0,80,385.79c-.18,3.53.52,4.8,1.25,4.14S83.29,378.22,81,379.9Z"/><path class="cls-17" d="M86.19,380.54a20.7,20.7,0,0,0-1.09,5.88c-.18,3.53.52,4.8,1.25,4.14S88.43,378.85,86.19,380.54Z"/><path class="cls-17" d="M91.67,381.24a20.7,20.7,0,0,0-.87,5.92c0,3.54.7,4.77,1.4,4.09S93.84,379.48,91.67,381.24Z"/><path class="cls-17" d="M97,382.67a16.47,16.47,0,0,0-.26,4.76c.22,2.81.9,3.73,1.41,3.14S98.62,381.11,97,382.67Z"/><path class="cls-17" d="M102.56,382.8a16.47,16.47,0,0,0,.08,4.76c.42,2.78,1.16,3.66,1.63,3S104,381.13,102.56,382.8Z"/></g><path class="cls-18" d="M77.77,391.66s-12.66,24.58-9.19,38.09c0,0,24.57,8.74,36.28,4.16l-9-39.06S83.12,393.46,77.77,391.66Z"/><path class="cls-9" d="M86.41,391.92s-8.57,37.57-3.87,45.24c0,0,2.4-39.5,6.23-44.43Z"/><path class="cls-1" d="M89.84,428.28c1.42.21,15.71-1.5,15.71-1.5l1.18,3.47-16.39,1.07Z"/><path class="cls-1" d="M67.08,421.21c1,.3,11.47,5.45,11.47,5.45l-.8,2.65-10.38-3.13Z"/><path class="cls-10" d="M124.28,425.26s6.72,3.24,8.15.95-5.24-5.87-5.24-5.87Z"/><path class="cls-19" d="M232.58,411.78a10.19,10.19,0,0,0-.94-13.83h0c-5.81-14.34,15.72-39.32,3.19-52.75h0c-19-15.21-11.94-32.73-42.21-30.29-8.53,3.11-6,11.43-4.95,16.84,2,10.36.5,23.88-4.52,30.3,0,0-10.31,21-9.27,25.22h0A6.28,6.28,0,0,0,177,398.54a7.4,7.4,0,0,0,8.52,9.27,7.39,7.39,0,0,0,10.94,5,7.4,7.4,0,0,0,12.2,6.25,9.13,9.13,0,0,0,16.64-3.58A10.15,10.15,0,0,0,232.58,411.78Z"/><path class="cls-10" d="M160.31,400.46S135.3,422,132.44,424s-.42,4.08,7.7,1.27c7.81-2.7,21.8-16.08,21.8-16.08Z"/><path class="cls-20" d="M183.66,403c.12,2.75-2.27,15.58,2.33,26.15s9.16,15.47,9.16,15.47-31.64,19.68-49.56-1.69c0,0,6.27-17.1,10.79-30.67,1-3-.87-5.57.2-8,2.23-5.07,8.73-7.5,10.14-7.87C172.86,394.82,183.23,393.3,183.66,403Z"/><path class="cls-6" d="M180.51,411.18c-1.12,2-2.34,12.5,7.39,32.72-13.35,9-31.1,5.88-38.66-3.13,0,0,5.29-14.42,9.09-25.86.42-1.26,3.29.74,3.12-.38s-3.68-6.49-3.62-7.61c.33-6.1,5.67-6.42,6.8-6.9,5-2.12,16.09-1.43,16.63-.14S181.64,409.14,180.51,411.18Z"/><path class="cls-20" d="M181,390.89,157,388s-5.34,13.51-2.1,14.82,29.94-2.33,29.94-2.33l1.57-4.95S183.25,391.18,181,390.89Z"/><path class="cls-10" d="M205.09,383.46s1.55,21.32,14.91,7.22C231.73,378.31,214.66,370.42,205.09,383.46Z"/><path class="cls-10" d="M129.76,358.11c-3.69,23.52,20.88,35.8,44.16,39.45s40.8-10.58,44.48-34.1a42.89,42.89,0,0,0-35.48-49.2C159.65,310.61,133.45,334.59,129.76,358.11Z"/><path class="cls-11" d="M133.3,357.54c-3.25,20.73,16,29.82,34.55,32.73s32.92-8.44,36.17-29.17-9.15-39.89-27.7-42.8S136.55,336.81,133.3,357.54Z"/><ellipse class="cls-13" cx="192.41" cy="375.45" rx="3.38" ry="10.13" transform="translate(-221.7 456.03) rotate(-73.88)"/><ellipse class="cls-13" cx="139.49" cy="360.02" rx="3.03" ry="9.09" transform="translate(-245.11 394.05) rotate(-73.88)"/><path class="cls-4" d="M164.08,382.41a9.28,9.28,0,0,0,3.54-1,.86.86,0,0,0-.75-1.55c-5.8,2.81-9.38-2.66-9.53-2.89a.86.86,0,0,0-1.45.92C155.93,378,159,382.69,164.08,382.41Z"/><path class="cls-12" d="M177,366.78s4.48-8.06,10.48-1.28c0,0,1.45-1.3,1.37-.62a7.74,7.74,0,0,1-1.36,2.9C187.1,368,182.11,362.62,177,366.78Z"/><path class="cls-12" d="M150.08,358.87s1.05-8.72-7.37-6.84c0,0-.39-1.81-.71-1.25a7.37,7.37,0,0,0-.57,3C141.59,354.13,148.43,352.78,150.08,358.87Z"/><path class="cls-19" d="M227,335.13c3.82-21.12-26-38.5-52.67-33.89-21.21,3.66-36.31,18.46-41.24,36.49C133.06,337.72,154.91,349.87,227,335.13Z"/><path class="cls-19" d="M192.93,339.81s22,32.15,0,46.34c0,0,6,7.37,18.18-9.23,4.4-.63,11.26,1,11,7.47,8.49-1.49,32.35-42,0-54.17C222.19,330.22,194.19,333.86,192.93,339.81Z"/><path class="cls-21" d="M219.28,331.46c.33-.86.31-23-22.27-23.72,0,0,7.53,5.5,11.17,11.86,0,0-31.28-25.56-65.06,4.72,0,0,45-12,57.87.87,0,0-44.21-5.12-63.95,10.82,0,0,62.43-9.49,69.45-1.71,0,0,4.2-6.55-1.79-11.72,0,0,11.2,1.47,14.18,9.82"/><path class="cls-21" d="M212.19,336s22.38,3.1,4.67,31.69C216.74,366.76,219,351.2,212.19,336Z"/><path class="cls-10" d="M182.89,402.28s15.83,13.33,24.22,23.34c1.3,1.15,4.28.13,4.73,1.4.3.84-3.6,4.9-6.75,3.49-8-3.6-22.58-15.77-24.58-19.33S178.36,401.81,182.89,402.28Z"/><path class="cls-22" d="M50.33,456.42s-3.47,49.92,12.89,61.52c15.15,10.75,95.93,18.87,116,10.94,26.15-10.35,29.23-72.46,29.23-72.46Z"/><path class="cls-23" d="M56.24,463.49s-2.82,40.58,10.48,50c12.32,8.74,78,15.34,94.28,8.89,21.26-8.42,23.77-58.91,23.77-58.91s-34.09,4.84-66.41,4.84A438.42,438.42,0,0,1,56.24,463.49Z"/><path class="cls-22" d="M33.94,427.64s101.94,27,184.45,3.66c0,0,17,20.33-3.91,25.44-49.66,12.14-174.53,7.16-184.83-9.07S33.94,427.64,33.94,427.64Z"/><path class="cls-23" d="M36.24,432.48s-6.56,9.33-2.26,13.08S145,472.69,213.91,449.31c0,0,10.22-11-9.37-8.62S76.66,454,36.24,432.48Z"/><path class="cls-22" d="M171.56,487.52c-2.08,0-4.28-.06-6.56-.22a2.74,2.74,0,1,1,.36-5.47,91,91,0,0,0,23.5-1.42,2.74,2.74,0,0,1,1.21,5.34A91.11,91.11,0,0,1,171.56,487.52Z"/><path class="cls-22" d="M154.55,502.32h0c-.24,0-6-.06-19.65-1a2.74,2.74,0,1,1,.36-5.47c13.53.9,19.28,1,19.34,1a2.74,2.74,0,0,1,0,5.48Z"/><path class="cls-22" d="M168.14,513.47c-4.11,0-8.76-.1-13.46-.42a2.74,2.74,0,1,1,.36-5.47,234.45,234.45,0,0,0,27,0,2.74,2.74,0,0,1,.37,5.47C182.09,513.08,176.12,513.47,168.14,513.47Z"/><path class="cls-22" d="M72.42,474.36A70.48,70.48,0,0,1,55.26,472a2.74,2.74,0,0,1,1.52-5.26,63.79,63.79,0,0,0,17,2.09,2.74,2.74,0,1,1,.21,5.47Z"/><path class="cls-22" d="M93.74,486c-.67,0-16.53,0-24-1.35a2.74,2.74,0,1,1,1-5.39c7,1.25,22.89,1.27,23.05,1.27a2.74,2.74,0,0,1,0,5.48Z"/><path class="cls-24" d="M126.7,482.12c-4.12,0-8.77-.1-13.46-.42a2.74,2.74,0,1,1,.36-5.47,234.73,234.73,0,0,0,27.05,0,2.74,2.74,0,1,1,.37,5.47C140.65,481.73,134.68,482.12,126.7,482.12Z"/><path class="cls-24" d="M80.78,499.58a88.78,88.78,0,0,1-17-1.58,2.74,2.74,0,0,1,1.09-5.37,85.62,85.62,0,0,0,18.43,1.43,2.74,2.74,0,1,1,.26,5.47C83.47,499.53,82.44,499.58,80.78,499.58Z"/><path class="cls-22" d="M115.35,500.25a113.4,113.4,0,0,1-14.48-1.06,2.74,2.74,0,0,1,.76-5.42,108.12,108.12,0,0,0,13.78,1h0a2.74,2.74,0,0,1,0,5.48Z"/><path class="cls-22" d="M136.22,520.27a113.4,113.4,0,0,1-14.48-1.06,2.74,2.74,0,0,1,.76-5.42,108.07,108.07,0,0,0,13.78,1h0a2.74,2.74,0,0,1,0,5.48Z"/><path class="cls-24" d="M99.45,513.8c-4.18,0-11-.23-15.7-1.57A2.74,2.74,0,0,1,85.27,507c6.09,1.76,17.48,1.31,17.59,1.3a2.74,2.74,0,0,1,.23,5.47C102.92,513.74,101.51,513.8,99.45,513.8Z"/></g></g></g></svg>