<svg xmlns="http://www.w3.org/2000/svg" viewBox="0 0 418.79 281.08"><defs><style>.cls-1{fill:#533156;}.cls-2{fill:#b02440;}.cls-3,.cls-7{fill:#d8214d;}.cls-3{opacity:0.7;}.cls-4{fill:#a069a8;}.cls-10,.cls-20,.cls-4,.cls-7{opacity:0.3;}.cls-5{fill:#f2ba9c;}.cls-6{fill:#ffceaf;}.cls-8{fill:#fff;}.cls-9{fill:#6d5041;}.cls-10{fill:#77467c;}.cls-11{fill:#98a36c;}.cls-12,.cls-16{fill:#bcc989;}.cls-12,.cls-15,.cls-17{opacity:0.5;}.cls-13{fill:#744539;}.cls-14,.cls-17{fill:#8c5d54;}.cls-18{fill:#d82e56;}.cls-19{fill:#3f3634;}.cls-20{fill:#564d4c;}</style></defs><title>Fichier 1</title><g id="Calque_2" data-name="Calque 2"><g id="_1200x1200" data-name="1200x1200"><path class="cls-1" d="M12.28,223.25A20.06,20.06,0,0,1,14.13,196h0c11.45-28.24-30.95-77.43-6.27-103.88l0,0C1.52,77.13,31.38,27.66,91,32.47c16.8,6.13,11.83,22.52,9.74,33.15-4,20.4-1,47,8.89,59.66,0,0,20.31,41.38,18.25,49.67h0a12.37,12.37,0,0,1-6.08,22.22A14.57,14.57,0,0,1,105,215.43a14.55,14.55,0,0,1-21.54,9.94,14.57,14.57,0,0,1-24,12.31,18,18,0,0,1-32.77-7A20,20,0,0,1,12.28,223.25Z"/><path class="cls-2" d="M103.6,184.66c-2.65,4-4.75,37.1-14.6,46.81s-25.75,26.35-25.75,26.35,46.38,40.89,87.2,14.23c0,0,4.74-27-2-51.83-1.44-5.29,5.09-9.47-4-19.79-6.42-7.26-9-17.21-11.2-18.53C123.73,176.12,109.67,175.46,103.6,184.66Z"/><path class="cls-3" d="M106.43,190.25c-.46,4,.42,28-30.08,62.17,6.53,10.3,41.5,31.32,67,15,0,0,2.44-25.67,0-47.16-4,.55-5.24,5.26-10.8,3.87a108,108,0,0,0,7.33-8.9c5.68-9-4-23.46-5.1-25.29-5-8-4.71-7-7.62-6.39-1.82.4-3.87,5.53-5.94,6.82C118.92,191.75,106.88,186.19,106.43,190.25Z"/><path class="cls-2" d="M103.36,178.25c4-.3,42.14-3,42.14-3s8.14,24,2.35,26.05-47.42-7-47.42-7l-2.23-7.51S99.34,178.56,103.36,178.25Z"/><path class="cls-4" d="M49.38,75.27S35.58,94.6,45,106.73C45,106.73,18,96,49.38,75.27Z"/><path class="cls-5" d="M61.77,168s-.61,37.35-25.3,14.07C14.79,161.67,43.81,146.23,61.77,168Z"/><path class="cls-5" d="M190.71,116.42c8.74,40.68-32.91,64.51-73.18,73.17s-72.21-14.45-81-55.13S53.39,53.79,93.65,45.14,182,75.74,190.71,116.42Z"/><path class="cls-6" d="M184.49,115.77c7.7,35.85-25,53.6-57.07,60.49s-58.27-11.5-66-47.34,12-70.49,44.12-77.39S176.78,79.92,184.49,115.77Z"/><path class="cls-1" d="M20.67,84.44C14,47.33,66.28,16.8,113.19,24.9,150.44,31.33,177,57.33,185.63,89,185.63,89,147.26,110.33,20.67,84.44Z"/><path class="cls-1" d="M80.46,92.67s-38.6,56.48,0,81.4c0,0-10.6,12.94-31.94-16.21-7.73-1.1-19.77,1.82-19.4,13.13-14.91-2.61-56.82-73.82-.06-95.15C29.06,75.83,78.25,82.22,80.46,92.67Z"/><ellipse class="cls-7" cx="83.12" cy="152.81" rx="17.7" ry="5.9" transform="translate(-45.92 36.15) rotate(-19.34)"/><ellipse class="cls-7" cx="173.94" cy="120.71" rx="15.89" ry="5.3" transform="translate(-30.16 64.42) rotate(-19.34)"/><path class="cls-8" d="M133.23,162.18a16.21,16.21,0,0,1-6.27-1.34,1.5,1.5,0,0,1,1.15-2.77,11.63,11.63,0,0,0,12.07-1.29,16.7,16.7,0,0,0,4.27-4.68,1.5,1.5,0,0,1,2.62,1.46C147,153.66,142.14,162.18,133.23,162.18Z"/><path class="cls-9" d="M109.22,136.18s-8.61-13.63-18.4-1.2c0,0-2.66-2.12-2.45-1s2,4.6,2.65,4.92S99.83,129.42,109.22,136.18Z"/><path class="cls-9" d="M155.35,119.73s-2.69-15.11,12.18-12.66c0,0,.51-3.19,1.11-2.25s1.53,4.54,1.29,5.17S157.62,109,155.35,119.73Z"/><path class="cls-10" d="M34.18,78c-.57-1.52-.55-40.33,39.12-41.67,0,0-13.23,9.67-19.62,20.83,0,0,54.95-44.9,114.28,8.3,0,0-79-21.13-101.66,1.53,0,0,77.66-9,112.33,19,0,0-109.67-16.67-122-3,0,0-7.37-11.51,3.15-20.59,0,0-19.67,2.59-24.91,17.25"/><path class="cls-10" d="M40.34,84.33S8.63,78,21.63,124.33C21.63,124.33,16.37,92.33,40.34,84.33Z"/><path class="cls-10" d="M46.63,86s-39.32,5.44-8.2,55.67C38.63,140,34.63,112.67,46.63,86Z"/><path class="cls-5" d="M152.88,228.31c-.52-2-7.74-25.54-3.73-24.76s17,16.19,17,20.82S155.72,238.94,152.88,228.31Z"/><path class="cls-6" d="M155.62,227.15s-6.7-15.33-6.54-18.17,10.31,4.83,12.15,10.5S156,232.15,155.62,227.15Z"/><path class="cls-5" d="M111.39,204.45c8.24-8.33,16.75,21.22,22.51,20.72s10.92-26,14.86-22.52c4.45,4-.09,36.19-11.57,38.36S101.94,214,111.39,204.45Z"/><path class="cls-6" d="M144.91,209s-7.46,16.42-8.83,17.88c-4.81,5.12-15.67-14.21-17.67-14.38s-4.67,5.33,0,12.17,11.5,13.5,17.33,11.67S150.58,208.82,144.91,209Z"/><path class="cls-11" d="M285,185.08s48.39,61.4,114.18,31.28c0,0,3.61-18.19-4.38-25.44s-64.61,40-91.88-12.19C302.93,178.73,274.92,173.13,285,185.08Z"/><path class="cls-12" d="M289.81,182.77c2.89,11.64,48.34,47.21,84.9,34.07,0,0,11.92-11.34,5.56-17.11S331.2,228,302.09,181.86C302.09,181.86,288.36,176.91,289.81,182.77Z"/><path class="cls-11" d="M406.31,216.6a10,10,0,0,1-5.12.35c-3-.53-3.94-1.9-3.27-2.87S408.1,213.51,406.31,216.6Z"/><path class="cls-11" d="M406.74,207.53a10,10,0,0,1-5,1c-3-.12-4.16-1.35-3.62-2.41S408.11,204.23,406.74,207.53Z"/><path class="cls-11" d="M406.63,210.52a10,10,0,0,1-5.09.71c-3-.32-4.06-1.62-3.46-2.64S408.2,207.32,406.63,210.52Z"/><path class="cls-11" d="M406.63,213.45a10,10,0,0,1-5.09.71c-3-.32-3.51-1.46-3.46-2.64C398.18,209.47,408.2,210.25,406.63,213.45Z"/><path class="cls-11" d="M406.17,204.92a10,10,0,0,1-5.06.9c-3-.2-4.12-1.47-3.55-2.51S407.63,201.66,406.17,204.92Z"/><path class="cls-11" d="M405.37,201.92a10,10,0,0,1-5.06.9c-3-.2-4.12-1.47-3.55-2.51S406.82,198.66,405.37,201.92Z"/><path class="cls-11" d="M405.68,198.12a10,10,0,0,1-4.87,1.65c-3,.25-4.29-.83-3.89-1.95S406.63,194.68,405.68,198.12Z"/><path class="cls-11" d="M404.57,194.66A10,10,0,0,1,400,197c-3,.69-4.37-.2-4.13-1.36S405,191.12,404.57,194.66Z"/><path class="cls-11" d="M403.5,190.46a10,10,0,0,1-3.79,3.47c-2.67,1.46-4.27,1-4.34-.21S403,186.93,403.5,190.46Z"/><path class="cls-11" d="M399.6,186.55a10,10,0,0,1-1.73,4.84c-1.69,2.53-3.32,2.85-3.94,1.84S397.49,183.67,399.6,186.55Z"/><polygon class="cls-13" points="317.03 196.7 380.02 246.59 376.48 254.03 314.82 215.18 317.03 196.7"/><path class="cls-14" d="M271,266.73l-.5,4a107.52,107.52,0,0,0,30.91,4.39c16.9-.18,37.16-5.63,44.67-11.08l-3.33-5.65Z"/><path class="cls-13" d="M273.29,192.71s-16.39,26.39-23.46,29.21-37.65-10.7-37.65-10.7l-5.65,13.92s40.3,15.56,49.31,13.31S287,218.69,287,218.69,292.52,186.82,273.29,192.71Z"/><path class="cls-13" d="M286.23,182.08c-6.75,9.73-30.12,61.76-15.26,84.65,2.18,3.36,71.58,9.37,71.75-8.33-6.07-16.65-28-58.2-30.12-74.06C310,164.44,293,172.35,286.23,182.08Z"/><path class="cls-5" d="M366.44,151.82s22.41,23.41,27.42-10.15S368.1,133,366.44,151.82Z"/><path class="cls-5" d="M225.26,110.14c-8.72,40.68,32.95,64.49,73.22,73.13s72.21-14.49,80.93-55.17-16.85-80.66-57.12-89.29S234,69.46,225.26,110.14Z"/><path class="cls-6" d="M231.49,109.49c-7.69,35.85,25,53.58,57.1,60.46s58.26-11.53,65.95-47.38-12.09-70.49-44.16-77.36S239.17,73.64,231.49,109.49Z"/><ellipse class="cls-9" cx="319.81" cy="129.39" rx="6.32" ry="3.85" transform="translate(113.11 405.6) rotate(-75.22)"/><ellipse class="cls-8" cx="321.7" cy="128.53" rx="2.17" ry="1.49" transform="translate(92.97 388.71) rotate(-70.46)"/><ellipse class="cls-9" cx="256.14" cy="106.79" rx="6.32" ry="3.85" transform="translate(87.53 327.21) rotate(-75.22)"/><ellipse class="cls-8" cx="258.03" cy="105.93" rx="2.17" ry="1.49" transform="translate(71.89 313.66) rotate(-70.46)"/><ellipse class="cls-7" cx="335.95" cy="149.11" rx="5.9" ry="17.7" transform="translate(84.14 416.85) rotate(-70.69)"/><ellipse class="cls-7" cx="241.49" cy="115.58" rx="5.9" ry="17.7" transform="matrix(0.33, -0.94, 0.94, 0.33, 52.56, 305.26)"/><path class="cls-8" d="M282.76,155.87c-8.91,0-13.78-8.51-13.84-8.62a1.5,1.5,0,0,1,2.62-1.46h0c.24.42,6,10.3,16.34,6a1.5,1.5,0,0,1,1.16,2.77A16.2,16.2,0,0,1,282.76,155.87Z"/><path class="cls-11" d="M319,183s4.33,8.46,2.87,12.49-20.81,4.73-31.17,3.92-18.17-2.28-17.46-6.73-.75-13.8,1.87-15.1S314.12,178.68,319,183Z"/><g class="cls-15"><path class="cls-16" d="M280.64,180a32.43,32.43,0,0,0-1.71,9.22c-.28,5.53.82,7.52,2,6.48S284.15,177.31,280.64,180Z"/><path class="cls-16" d="M288.69,180.95a32.44,32.44,0,0,0-1.71,9.22c-.28,5.53.82,7.52,2,6.48S292.2,178.31,288.69,180.95Z"/><path class="cls-16" d="M297.28,182.06a32.43,32.43,0,0,0-1.37,9.28c-.08,5.54,1.09,7.48,2.19,6.41S300.69,179.29,297.28,182.06Z"/><path class="cls-16" d="M305.67,184.29a25.82,25.82,0,0,0-.41,7.45c.34,4.4,1.41,5.85,2.2,4.92S308.17,181.85,305.67,184.29Z"/><path class="cls-16" d="M314.36,184.49a25.82,25.82,0,0,0,.12,7.46c.66,4.36,1.82,5.74,2.55,4.75S316.68,181.87,314.36,184.49Z"/></g><path class="cls-5" d="M212.18,211.22s-20.18-10.61-21.36-5.1,15.72,19,15.72,19Z"/><path class="cls-2" d="M167,189.27a12.67,12.67,0,0,1,8.78-7.66h0a13.21,13.21,0,0,1,8,.49,12.81,12.81,0,0,1,6.86,6.67q.12.26.24.53a15,15,0,0,1,2.62-.93,12.34,12.34,0,0,1,7.48.36,13.2,13.2,0,0,1,7.21,6.7,12.45,12.45,0,0,1,.41,9.89c-4.32,11.2-19.24,15.71-27.25,18.13l-1.74.53-.18,0a3.17,3.17,0,0,1-3.5-1.47L175,221C170.7,213.83,162.68,200.48,167,189.27Z"/><path class="cls-17" d="M277.34,201.31s-13.06,41.31-4.13,61.26c0,0,40.25,7,57.13-3.16l-24.28-57.94S286.09,202.68,277.34,201.31Z"/><path class="cls-14" d="M290.75,199.44s-3.31,60.29,6,70.89c0,0-6.74-61.65-2.11-70.27Z"/><path class="cls-13" d="M305.67,254.69c2.25-.06,23.87-6.47,23.87-6.47l2.73,5-25,6Z"/><path class="cls-13" d="M268.65,249.78c1.67.18,19.15,5.39,19.15,5.39l-.53,4.3-16.86-2.09Z"/><path class="cls-17" d="M218,217l28.22,9.7,2.72,2.63.52-4.19s3.15,1.66,4,.49,15.1-16.19,15.1-16.19S258,234.69,254.6,234.94s-39.83-12-39.17-14.58A4.77,4.77,0,0,1,218,217Z"/><path class="cls-5" d="M380,246.6s13.31-7.7,12.79-3.52-16.33,11-16.33,11Z"/><path class="cls-18" d="M172,192a9.56,9.56,0,0,1,6.62-5.78h0a10,10,0,0,1,6,.37,9.66,9.66,0,0,1,5.18,5l.18.4a11.28,11.28,0,0,1,2-.7,9.31,9.31,0,0,1,5.65.27,10,10,0,0,1,5.44,5.05,9.39,9.39,0,0,1,.31,7.46c-3.26,8.45-14.51,11.85-20.55,13.68l-1.31.4-.13,0a2.39,2.39,0,0,1-2.64-1.11l-.7-1.18C174.79,210.49,168.74,200.41,172,192Z"/><path class="cls-19" d="M244.29,49.64a14.47,14.47,0,0,1,7.18-25.85s0-.07,0-.1a14.47,14.47,0,0,1,20.32-13.25,14.45,14.45,0,0,1,22.7-2.3A14.46,14.46,0,0,1,321,9.31a14.47,14.47,0,0,1,23.45.71A14.45,14.45,0,0,1,363.68,23.7h0A14.47,14.47,0,0,1,389,33.25a14.47,14.47,0,0,1,13.75,19,14.47,14.47,0,0,1,16,14.4,14.46,14.46,0,0,1-7.2,12.5,14.48,14.48,0,0,1-.94,24.61c-1.12,17.27-13.53,37.66-18,43.94,6.38-16.69-11-24.94-13.48-15.23-4.06,16.15-20.3,13.07-20.3,13.07,8.13-7.59,4.45-22.21.45-32.28a14.37,14.37,0,0,1-16.43-13.91,14.43,14.43,0,0,1-18.24-8.44A14.42,14.42,0,0,1,308,80.56a14.46,14.46,0,0,1-23.07-6.4,14.45,14.45,0,0,1-22.75-2.24,14.47,14.47,0,1,1-17.9-22.27Z"/><path class="cls-20" d="M253.1,39.68a12.5,12.5,0,0,1,15.68-12.14,12.53,12.53,0,0,1,22.64-3.68c0-.07,0-.14,0-.22a12.55,12.55,0,0,1,24.08-4.94,12.52,12.52,0,0,1,20.27-.33A12.5,12.5,0,0,1,350.61,29.8a12.55,12.55,0,0,1,9.64,6.48,12.54,12.54,0,1,1,21.89,12.26,12.47,12.47,0,0,1,1.69,6.27A12.53,12.53,0,0,1,394.65,73.7a12.54,12.54,0,0,1-3.36,24.53,12.54,12.54,0,1,1-24.52,4.57A12.51,12.51,0,0,1,352,91.74h-.29A12.52,12.52,0,0,1,341.88,87a12.54,12.54,0,0,1-19.12-6.61,12.43,12.43,0,0,1-13.38-6.83,12.51,12.51,0,0,1-17.12-6.82,12.5,12.5,0,0,1-16.06-4.47,12.54,12.54,0,1,1-20.28-14.7A12.49,12.49,0,0,1,253.1,39.68Z"/></g></g></svg>