<svg xmlns="http://www.w3.org/2000/svg" viewBox="0 0 661.93 538.59"><defs><style>.cls-1{fill:#fff;fill-rule:evenodd;}</style></defs><title>Fichier 3</title><g id="Calque_2" data-name="Calque 2"><g id="Calque_1-2" data-name="Calque 1"><g id="medium_heart_white"><path class="cls-1" d="M33.77,159.85c-5.91-4.7-20.68-15.13-20.68-27.42A10.59,10.59,0,0,1,23.8,122.09c5.77,0,10,5.62,10,7.94,0-2.32,4.2-7.94,10-7.94a10.59,10.59,0,0,1,10.71,10.34C54.44,144.72,39.68,155.15,33.77,159.85Z"/><path class="cls-1" d="M298.41,107c-5.91-4.7-20.68-15.13-20.68-27.42a10.59,10.59,0,0,1,10.71-10.34c5.77,0,10,5.62,10,7.94,0-2.32,4.2-7.94,10-7.94a10.59,10.59,0,0,1,10.71,10.34C319.09,91.85,304.32,102.28,298.41,107Z"/><path class="cls-1" d="M372.72,65.31C366.8,60.61,352,50.17,352,37.88a10.59,10.59,0,0,1,10.71-10.34c5.77,0,10,5.62,10,7.94,0-2.32,4.2-7.94,10-7.94a10.59,10.59,0,0,1,10.71,10.34C393.39,50.17,378.63,60.61,372.72,65.31Z"/><path class="cls-1" d="M486.93,37.76c-5.91-4.7-20.68-15.13-20.68-27.42A10.59,10.59,0,0,1,477,0c5.77,0,10,5.62,10,7.94,0-2.32,4.2-7.94,10-7.94a10.59,10.59,0,0,1,10.71,10.34C507.61,22.63,492.84,33.06,486.93,37.76Z"/><path class="cls-1" d="M204.61,538.59c-5.91-4.7-20.68-15.13-20.68-27.42a10.59,10.59,0,0,1,10.71-10.34c5.77,0,10,5.62,10,7.94,0-2.32,4.2-7.94,10-7.94a10.59,10.59,0,0,1,10.71,10.34C225.29,523.46,210.52,533.9,204.61,538.59Z"/><path class="cls-1" d="M137.54,490.27c-5.91-4.7-20.68-15.13-20.68-27.42a10.59,10.59,0,0,1,10.71-10.34c5.77,0,10,5.62,10,7.94,0-2.32,4.2-7.94,10-7.94a10.59,10.59,0,0,1,10.71,10.34C158.22,475.13,143.46,485.57,137.54,490.27Z"/><path class="cls-1" d="M20.68,340.58C14.77,335.88,0,325.44,0,313.15a10.59,10.59,0,0,1,10.71-10.34c5.77,0,10,5.62,10,7.94,0-2.32,4.2-7.94,10-7.94a10.59,10.59,0,0,1,10.71,10.34C41.36,325.44,26.59,335.88,20.68,340.58Z"/><path class="cls-1" d="M641.25,443.13c-5.91-4.7-20.68-15.13-20.68-27.42a10.59,10.59,0,0,1,10.71-10.34c5.77,0,10,5.62,10,7.94,0-2.32,4.2-7.94,10-7.94a10.59,10.59,0,0,1,10.71,10.34C661.93,428,647.16,438.43,641.25,443.13Z"/><path class="cls-1" d="M541.31,261.1c-5.91-4.7-20.68-15.13-20.68-27.42a10.59,10.59,0,0,1,10.71-10.34c5.77,0,10,5.62,10,7.94,0-2.32,4.2-7.94,10-7.94A10.59,10.59,0,0,1,562,233.68C562,246,547.22,256.41,541.31,261.1Z"/><path class="cls-1" d="M497.8,464.77c-5.91-4.7-20.68-15.13-20.68-27.42A10.59,10.59,0,0,1,487.84,427c5.77,0,10,5.62,10,7.94,0-2.32,4.2-7.94,10-7.94a10.59,10.59,0,0,1,10.71,10.34C518.48,449.63,503.71,460.07,497.8,464.77Z"/><path class="cls-1" d="M486.93,169.63c-8.05-6.4-28.18-20.62-28.18-37.36,0-7.86,6.74-14.09,14.6-14.09s13.58,7.66,13.58,10.82c0-3.16,5.72-10.82,13.58-10.82s14.6,6.23,14.6,14.09C515.1,149,495,163.23,486.93,169.63Z"/><path class="cls-1" d="M170.53,148.07c-8.05-6.4-28.18-20.62-28.18-37.36,0-7.86,6.74-14.09,14.6-14.09s13.58,7.66,13.58,10.82c0-3.16,5.72-10.82,13.58-10.82s14.6,6.23,14.6,14.09C198.71,127.45,178.58,141.67,170.53,148.07Z"/></g></g></g></svg>