<svg xmlns="http://www.w3.org/2000/svg" viewBox="0 0 780.35 602.18"><defs><style>.cls-1{isolation:isolate;}.cls-2{fill:#d4325e;fill-rule:evenodd;mix-blend-mode:multiply;}</style></defs><title>Fichier 7</title><g class="cls-1"><g id="Calque_2" data-name="Calque 2"><g id="Calque_1-2" data-name="Calque 1"><g id="red_heart"><path class="cls-2" d="M643.38,234.18c-5.91-4.7-20.68-15.13-20.68-27.42a10.59,10.59,0,0,1,10.71-10.34c5.77,0,10,5.62,10,7.94,0-2.32,4.2-7.94,10-7.94a10.59,10.59,0,0,1,10.71,10.34C664.06,219,649.29,229.48,643.38,234.18Z"/><path class="cls-2" d="M51.85,553.27c-5.91-4.7-20.68-15.13-20.68-27.42a10.59,10.59,0,0,1,10.71-10.34c5.77,0,10,5.62,10,7.94,0-2.32,4.2-7.94,10-7.94a10.59,10.59,0,0,1,10.71,10.34C72.53,538.14,57.76,548.57,51.85,553.27Z"/><path class="cls-2" d="M756.71,519.2C750.8,514.5,736,504.06,736,491.78a10.59,10.59,0,0,1,10.71-10.34c5.77,0,10,5.62,10,7.94,0-2.32,4.2-7.94,10-7.94a10.59,10.59,0,0,1,10.71,10.34C777.39,504.06,762.62,514.5,756.71,519.2Z"/><path class="cls-2" d="M20.68,309.42C14.77,304.72,0,294.28,0,282a10.59,10.59,0,0,1,10.71-10.34c5.77,0,10,5.62,10,7.94,0-2.32,4.2-7.94,10-7.94A10.59,10.59,0,0,1,41.36,282C41.36,294.28,26.59,304.72,20.68,309.42Z"/><path class="cls-2" d="M608.15,382c-8.05-6.4-28.18-20.62-28.18-37.36,0-7.86,6.74-14.09,14.6-14.09s13.58,7.66,13.58,10.82c0-3.16,5.72-10.82,13.58-10.82s14.6,6.23,14.6,14.09C636.32,361.37,616.2,375.59,608.15,382Z"/><path class="cls-2" d="M122.47,425.38C114.42,419,94.29,404.76,94.29,388c0-7.86,6.74-14.09,14.6-14.09s13.58,7.66,13.58,10.82c0-3.16,5.72-10.82,13.58-10.82s14.6,6.23,14.6,14.09C150.65,404.76,130.52,419,122.47,425.38Z"/><path class="cls-2" d="M208.3,71.69c-8.05-6.4-28.18-20.62-28.18-37.36,0-7.86,6.74-14.09,14.6-14.09S208.3,27.9,208.3,31.06c0-3.16,5.72-10.82,13.58-10.82s14.6,6.23,14.6,14.09C236.48,51.07,216.36,65.29,208.3,71.69Z"/><path class="cls-2" d="M363.52,602.18c-2.48-2-8.68-6.35-8.68-11.51a4.44,4.44,0,0,1,4.5-4.34c2.42,0,4.18,2.36,4.18,3.33,0-1,1.76-3.33,4.18-3.33a4.44,4.44,0,0,1,4.5,4.34C372.2,595.83,366,600.21,363.52,602.18Z"/><path class="cls-2" d="M472.69,129.41c-2.48-2-8.68-6.35-8.68-11.51a4.44,4.44,0,0,1,4.5-4.34c2.42,0,4.18,2.36,4.18,3.33,0-1,1.76-3.33,4.18-3.33a4.44,4.44,0,0,1,4.5,4.34C481.37,123.05,475.17,127.43,472.69,129.41Z"/><path class="cls-2" d="M409.72,15.85c-2.48-2-8.68-6.35-8.68-11.51A4.44,4.44,0,0,1,405.54,0c2.42,0,4.18,2.36,4.18,3.33,0-1,1.76-3.33,4.18-3.33a4.44,4.44,0,0,1,4.5,4.34C418.4,9.5,412.2,13.88,409.72,15.85Z"/><path class="cls-2" d="M651.74,112.15c-2.48-2-8.68-6.35-8.68-11.51a4.44,4.44,0,0,1,4.5-4.34c2.42,0,4.18,2.36,4.18,3.33,0-1,1.76-3.33,4.18-3.33a4.44,4.44,0,0,1,4.5,4.34C660.42,105.8,654.22,110.18,651.74,112.15Z"/><path class="cls-2" d="M771.68,428.63c-2.48-2-8.68-6.35-8.68-11.51a4.44,4.44,0,0,1,4.5-4.34c2.42,0,4.18,2.36,4.18,3.33,0-1,1.76-3.33,4.18-3.33a4.44,4.44,0,0,1,4.5,4.34C780.35,422.28,774.16,426.66,771.68,428.63Z"/><path class="cls-2" d="M498.6,561.83c-2.48-2-8.68-6.35-8.68-11.51a4.44,4.44,0,0,1,4.5-4.34c2.42,0,4.18,2.36,4.18,3.33,0-1,1.76-3.33,4.18-3.33a4.44,4.44,0,0,1,4.5,4.34C507.28,555.48,501.08,559.86,498.6,561.83Z"/></g></g></g></g></svg>