<svg xmlns="http://www.w3.org/2000/svg" viewBox="0 0 857.33 613.16"><defs><style>.cls-1{fill:#fff;fill-rule:evenodd;}</style></defs><title>Fichier 4</title><g id="Calque_2" data-name="Calque 2"><g id="Calque_1-2" data-name="Calque 1"><g id="small_heart_white"><path class="cls-1" d="M84.33,396.64c-2.48-2-8.68-6.35-8.68-11.51a4.44,4.44,0,0,1,4.5-4.34c2.42,0,4.18,2.36,4.18,3.33,0-1,1.76-3.33,4.18-3.33a4.44,4.44,0,0,1,4.5,4.34C93,390.29,86.82,394.67,84.33,396.64Z"/><path class="cls-1" d="M665.49,613.16c-2.48-2-8.68-6.35-8.68-11.51a4.44,4.44,0,0,1,4.5-4.34c2.42,0,4.18,2.36,4.18,3.33,0-1,1.76-3.33,4.18-3.33a4.44,4.44,0,0,1,4.5,4.34C674.17,606.81,668,611.19,665.49,613.16Z"/><path class="cls-1" d="M354.36,161.14c-2.48-2-8.68-6.35-8.68-11.51a4.44,4.44,0,0,1,4.5-4.34c2.42,0,4.18,2.36,4.18,3.33,0-1,1.76-3.33,4.18-3.33a4.44,4.44,0,0,1,4.5,4.34C363,154.79,356.84,159.17,354.36,161.14Z"/><path class="cls-1" d="M433.88,186c-2.48-2-8.68-6.35-8.68-11.51a4.44,4.44,0,0,1,4.5-4.34c2.42,0,4.18,2.36,4.18,3.33,0-1,1.76-3.33,4.18-3.33a4.44,4.44,0,0,1,4.5,4.34C442.56,179.69,436.36,184.07,433.88,186Z"/><path class="cls-1" d="M235,108.24c-2.48-2-8.68-6.35-8.68-11.51a4.44,4.44,0,0,1,4.5-4.34c2.42,0,4.18,2.36,4.18,3.33,0-1,1.76-3.33,4.18-3.33a4.44,4.44,0,0,1,4.5,4.34C243.66,101.89,237.46,106.27,235,108.24Z"/><path class="cls-1" d="M75.66,207.93c-2.48-2-8.68-6.35-8.68-11.51a4.44,4.44,0,0,1,4.5-4.34c2.42,0,4.18,2.36,4.18,3.33,0-1,1.76-3.33,4.18-3.33a4.44,4.44,0,0,1,4.5,4.34C84.33,201.58,78.14,206,75.66,207.93Z"/><path class="cls-1" d="M622,264.41c-2.48-2-8.68-6.35-8.68-11.51a4.44,4.44,0,0,1,4.5-4.34c2.42,0,4.18,2.36,4.18,3.33,0-1,1.76-3.33,4.18-3.33a4.44,4.44,0,0,1,4.5,4.34C630.66,258.06,624.47,262.44,622,264.41Z"/><path class="cls-1" d="M512.68,192.08c-2.48-2-8.68-6.35-8.68-11.51a4.44,4.44,0,0,1,4.5-4.34c2.42,0,4.18,2.36,4.18,3.33,0-1,1.76-3.33,4.18-3.33a4.44,4.44,0,0,1,4.5,4.34C521.36,185.73,515.16,190.11,512.68,192.08Z"/><path class="cls-1" d="M474.35,155.43c-2.48-2-8.68-6.35-8.68-11.51a4.44,4.44,0,0,1,4.5-4.34c2.42,0,4.18,2.36,4.18,3.33,0-1,1.76-3.33,4.18-3.33a4.44,4.44,0,0,1,4.5,4.34C483,149.08,476.83,153.46,474.35,155.43Z"/><path class="cls-1" d="M542.05,15.85c-2.48-2-8.68-6.35-8.68-11.51A4.44,4.44,0,0,1,537.87,0c2.42,0,4.18,2.36,4.18,3.33,0-1,1.76-3.33,4.18-3.33a4.44,4.44,0,0,1,4.5,4.34C550.73,9.5,544.53,13.88,542.05,15.85Z"/><path class="cls-1" d="M374.05,100.32c-2.48-2-8.68-6.35-8.68-11.51a4.44,4.44,0,0,1,4.5-4.34c2.42,0,4.18,2.36,4.18,3.33,0-1,1.76-3.33,4.18-3.33a4.44,4.44,0,0,1,4.5,4.34C382.73,94,376.53,98.35,374.05,100.32Z"/><path class="cls-1" d="M371.69,34.73c-2.48-2-8.68-6.35-8.68-11.51a4.44,4.44,0,0,1,4.5-4.34c2.42,0,4.18,2.36,4.18,3.33,0-1,1.76-3.33,4.18-3.33a4.44,4.44,0,0,1,4.5,4.34C380.37,28.38,374.17,32.76,371.69,34.73Z"/><path class="cls-1" d="M786.11,173.66c-2.48-2-8.68-6.35-8.68-11.51a4.44,4.44,0,0,1,4.5-4.34c2.42,0,4.18,2.36,4.18,3.33,0-1,1.76-3.33,4.18-3.33a4.44,4.44,0,0,1,4.5,4.34C794.79,167.31,788.59,171.69,786.11,173.66Z"/><path class="cls-1" d="M187.31,345.4c-2.48-2-8.68-6.35-8.68-11.51a4.44,4.44,0,0,1,4.5-4.34c2.42,0,4.18,2.36,4.18,3.33,0-1,1.76-3.33,4.18-3.33a4.44,4.44,0,0,1,4.5,4.34C196,339,189.79,343.42,187.31,345.4Z"/><path class="cls-1" d="M217.62,375c-2.48-2-8.68-6.35-8.68-11.51a4.44,4.44,0,0,1,4.5-4.34c2.42,0,4.18,2.36,4.18,3.33,0-1,1.76-3.33,4.18-3.33a4.44,4.44,0,0,1,4.5,4.34C226.3,368.67,220.1,373,217.62,375Z"/><path class="cls-1" d="M136.18,436.52c-2.48-2-8.68-6.35-8.68-11.51a4.44,4.44,0,0,1,4.5-4.34c2.42,0,4.18,2.36,4.18,3.33,0-1,1.76-3.33,4.18-3.33a4.44,4.44,0,0,1,4.5,4.34C144.86,430.17,138.66,434.55,136.18,436.52Z"/><path class="cls-1" d="M8.68,464C6.2,462.05,0,457.67,0,452.52a4.44,4.44,0,0,1,4.5-4.34c2.42,0,4.18,2.36,4.18,3.33,0-1,1.76-3.33,4.18-3.33a4.44,4.44,0,0,1,4.5,4.34C17.36,457.67,11.16,462.05,8.68,464Z"/><path class="cls-1" d="M136.18,279.62c-2.48-2-8.68-6.35-8.68-11.51a4.44,4.44,0,0,1,4.5-4.34c2.42,0,4.18,2.36,4.18,3.33,0-1,1.76-3.33,4.18-3.33a4.44,4.44,0,0,1,4.5,4.34C144.86,273.26,138.66,277.64,136.18,279.62Z"/><path class="cls-1" d="M84.33,525c-2.48-2-8.68-6.35-8.68-11.51a4.44,4.44,0,0,1,4.5-4.34c2.42,0,4.18,2.36,4.18,3.33,0-1,1.76-3.33,4.18-3.33a4.44,4.44,0,0,1,4.5,4.34C93,518.61,86.82,523,84.33,525Z"/><path class="cls-1" d="M445.2,572.79c-2.48-2-8.68-6.35-8.68-11.51a4.44,4.44,0,0,1,4.5-4.34c2.42,0,4.18,2.36,4.18,3.33,0-1,1.76-3.33,4.18-3.33a4.44,4.44,0,0,1,4.5,4.34C453.88,566.44,447.69,570.82,445.2,572.79Z"/><path class="cls-1" d="M187.31,552.08c-2.48-2-8.68-6.35-8.68-11.51a4.44,4.44,0,0,1,4.5-4.34c2.42,0,4.18,2.36,4.18,3.33,0-1,1.76-3.33,4.18-3.33a4.44,4.44,0,0,1,4.5,4.34C196,545.73,189.79,550.11,187.31,552.08Z"/><path class="cls-1" d="M206.8,506.12c-2.48-2-8.68-6.35-8.68-11.51a4.44,4.44,0,0,1,4.5-4.34c2.42,0,4.18,2.36,4.18,3.33,0-1,1.76-3.33,4.18-3.33a4.44,4.44,0,0,1,4.5,4.34C215.48,499.77,209.29,504.15,206.8,506.12Z"/><path class="cls-1" d="M263.73,234.77c-2.48-2-8.68-6.35-8.68-11.51a4.44,4.44,0,0,1,4.5-4.34c2.42,0,4.18,2.36,4.18,3.33,0-1,1.76-3.33,4.18-3.33a4.44,4.44,0,0,1,4.5,4.34C272.41,228.42,266.22,232.8,263.73,234.77Z"/><path class="cls-1" d="M178.63,158.85c-2.48-2-8.68-6.35-8.68-11.51a4.44,4.44,0,0,1,4.5-4.34c2.42,0,4.18,2.36,4.18,3.33,0-1,1.76-3.33,4.18-3.33a4.44,4.44,0,0,1,4.5,4.34C187.31,152.5,181.11,156.88,178.63,158.85Z"/><path class="cls-1" d="M223.69,60.45c-2.48-2-8.68-6.35-8.68-11.51a4.44,4.44,0,0,1,4.5-4.34c2.42,0,4.18,2.36,4.18,3.33,0-1,1.76-3.33,4.18-3.33a4.44,4.44,0,0,1,4.5,4.34C232.37,54.1,226.17,58.48,223.69,60.45Z"/><path class="cls-1" d="M17.36,285.16c-2.48-2-8.68-6.35-8.68-11.51a4.44,4.44,0,0,1,4.5-4.34c2.42,0,4.18,2.36,4.18,3.33,0-1,1.76-3.33,4.18-3.33a4.44,4.44,0,0,1,4.5,4.34C26,278.81,19.84,283.19,17.36,285.16Z"/><path class="cls-1" d="M196.95,226.84c-2.48-2-8.68-6.35-8.68-11.51a4.44,4.44,0,0,1,4.5-4.34c2.42,0,4.18,2.36,4.18,3.33,0-1,1.76-3.33,4.18-3.33a4.44,4.44,0,0,1,4.5,4.34C205.62,220.49,199.43,224.87,196.95,226.84Z"/><path class="cls-1" d="M394.2,284.43c-2.48-2-8.68-6.35-8.68-11.51a4.44,4.44,0,0,1,4.5-4.34c2.42,0,4.18,2.36,4.18,3.33,0-1,1.76-3.33,4.18-3.33a4.44,4.44,0,0,1,4.5,4.34C402.88,278.08,396.68,282.46,394.2,284.43Z"/><path class="cls-1" d="M656.81,482.62c-2.48-2-8.68-6.35-8.68-11.51a4.44,4.44,0,0,1,4.5-4.34c2.42,0,4.18,2.36,4.18,3.33,0-1,1.76-3.33,4.18-3.33a4.44,4.44,0,0,1,4.5,4.34C665.49,476.27,659.29,480.65,656.81,482.62Z"/><path class="cls-1" d="M709.84,322.92c-2.48-2-8.68-6.35-8.68-11.51a4.44,4.44,0,0,1,4.5-4.34c2.42,0,4.18,2.36,4.18,3.33,0-1,1.76-3.33,4.18-3.33a4.44,4.44,0,0,1,4.5,4.34C718.52,316.57,712.32,320.95,709.84,322.92Z"/><path class="cls-1" d="M665.49,259c-2.48-2-8.68-6.35-8.68-11.51a4.44,4.44,0,0,1,4.5-4.34c2.42,0,4.18,2.36,4.18,3.33,0-1,1.76-3.33,4.18-3.33a4.44,4.44,0,0,1,4.5,4.34C674.17,252.6,668,257,665.49,259Z"/><path class="cls-1" d="M786.11,345.4c-2.48-2-8.68-6.35-8.68-11.51a4.44,4.44,0,0,1,4.5-4.34c2.42,0,4.18,2.36,4.18,3.33,0-1,1.76-3.33,4.18-3.33a4.44,4.44,0,0,1,4.5,4.34C794.79,339,788.59,343.42,786.11,345.4Z"/><path class="cls-1" d="M848.65,336.63c-2.48-2-8.68-6.35-8.68-11.51a4.44,4.44,0,0,1,4.5-4.34c2.42,0,4.18,2.36,4.18,3.33,0-1,1.76-3.33,4.18-3.33a4.44,4.44,0,0,1,4.5,4.34C857.33,330.28,851.13,334.66,848.65,336.63Z"/><path class="cls-1" d="M648.13,121.08c-2.48-2-8.68-6.35-8.68-11.51a4.44,4.44,0,0,1,4.5-4.34c2.42,0,4.18,2.36,4.18,3.33,0-1,1.76-3.33,4.18-3.33a4.44,4.44,0,0,1,4.5,4.34C656.81,114.73,650.61,119.11,648.13,121.08Z"/><path class="cls-1" d="M811.69,592.87c-2.48-2-8.68-6.35-8.68-11.51a4.44,4.44,0,0,1,4.5-4.34c2.42,0,4.18,2.36,4.18,3.33,0-1,1.76-3.33,4.18-3.33a4.44,4.44,0,0,1,4.5,4.34C820.37,586.52,814.17,590.9,811.69,592.87Z"/><path class="cls-1" d="M765.43,409.84c-2.48-2-8.68-6.35-8.68-11.51a4.44,4.44,0,0,1,4.5-4.34c2.42,0,4.18,2.36,4.18,3.33,0-1,1.76-3.33,4.18-3.33a4.44,4.44,0,0,1,4.5,4.34C774.11,403.49,767.91,407.87,765.43,409.84Z"/><path class="cls-1" d="M634,428.6c-2.48-2-8.68-6.35-8.68-11.51a4.44,4.44,0,0,1,4.5-4.34c2.42,0,4.18,2.36,4.18,3.33,0-1,1.76-3.33,4.18-3.33a4.44,4.44,0,0,1,4.5,4.34C642.66,422.25,636.47,426.63,634,428.6Z"/><path class="cls-1" d="M701.16,542c-2.48-2-8.68-6.35-8.68-11.51a4.44,4.44,0,0,1,4.5-4.34c2.42,0,4.18,2.36,4.18,3.33,0-1,1.76-3.33,4.18-3.33a4.44,4.44,0,0,1,4.5,4.34C709.84,535.67,703.64,540,701.16,542Z"/><path class="cls-1" d="M563.57,287.54c-2.48-2-8.68-6.35-8.68-11.51a4.44,4.44,0,0,1,4.5-4.34c2.42,0,4.18,2.36,4.18,3.33,0-1,1.76-3.33,4.18-3.33a4.44,4.44,0,0,1,4.5,4.34C572.25,281.19,566.06,285.57,563.57,287.54Z"/><path class="cls-1" d="M622,562.65c-2.48-2-8.68-6.35-8.68-11.51a4.44,4.44,0,0,1,4.5-4.34c2.42,0,4.18,2.36,4.18,3.33,0-1,1.76-3.33,4.18-3.33a4.44,4.44,0,0,1,4.5,4.34C630.66,556.3,624.47,560.68,622,562.65Z"/></g></g></g></svg>